# ProBuilder 4.1.0
# https://unity3d.com/unity/features/worldbuilding/probuilder
# 26/07/2019 16:54:14

mtllib ./VR_Test_Building.mtl
o VR Test Building

g ProBuilder Building
v 3.425783 0.0002132058 -3.98193
v 0.9257836 0.0002132058 -3.98193
v 3.425783 0.0002131164 1.210052
v -3.425782 0.0002132058 -3.974216
v -3.425782 0.0002131164 1.210052
v -0.9257822 0.0002131164 1.210052
v -0.9257822 -0.0002132058 3.974216
v -3.425782 -0.0002132058 3.974216
v 0.9257836 0.9000711 -6.397867
v 3.425783 0.8991861 -6.397867
v 0.9257836 0.893599 -8.608727
v 3.425783 0.8927141 -8.608727
v -1.534581 2.169173 -6.399331
v -1.534581 2.162701 -8.610191
v -3.420878 2.161816 -8.580932
v -3.420878 2.168288 -6.396378
v -1.534581 2.950689 -3.985661
v -3.420878 2.950689 -3.985661
v 3.417137 2.950689 -3.985661
v 3.417137 2.950689 3.979188
v -3.425863 2.950689 3.979188
v 0.9257836 0.8846841 -6.397867
v 3.425783 -0.01517379 -3.98193
v 0.9257836 -0.01517379 -3.98193
v 3.425783 0.8837991 -6.397867
v 0.9257836 0.878212 -8.608727
v 3.425783 0.8773271 -8.608727
v -1.534581 2.153786 -6.399331
v -1.534581 2.147314 -8.610191
v -3.420878 2.146429 -8.580932
v -3.420878 2.1529 -6.396378
v -1.534581 2.935302 -3.985661
v -3.420878 2.935302 -3.985661
v 3.417137 2.935302 -3.985661
v 3.417137 2.935302 3.979188
v -3.425863 2.935302 3.979188

vt -3.425783 -3.98193
vt -0.9257836 -3.98193
vt -3.425783 1.210052
vt 3.425782 -3.974216
vt 3.425782 1.210052
vt 0.9257822 1.210052
vt 0.9257822 3.974216
vt 3.425782 3.974216
vt -0.9257836 -6.309649
vt -3.425783 -3.731569
vt -0.9257836 -3.731569
vt -3.425783 -6.30934
vt -0.9254673 -8.606072
vt -3.425465 -6.395204
vt -0.9254649 -6.395204
vt -3.425467 -8.606072
vt 2.358238 -6.396124
vt -0.4131248 -8.605527
vt -0.4101579 -6.39466
vt 2.355271 -8.606992
vt -7.897391 0
vt -6.098671 0
vt -8.970368 0
vt -7.193051 0
vt -4.134947 0
vt -5.23173 0
vt -3.417137 -3.985661
vt -3.417137 3.979188
vt 1.534581 -3.985661
vt 3.420878 -3.985661
vt 3.425863 3.979188
vt 0.9254704 -6.304844
vt 3.425788 -3.727073
vt 0.9257889 -3.726764
vt 3.42547 -6.304844
vt 0.9254727 -8.606118
vt 3.42547 -6.395249
vt 0.9254704 -6.395249
vt 3.425472 -8.606118
vt -2.351184 -6.39616
vt 0.4201787 -8.605562
vt 0.4172117 -6.394696
vt -2.348217 -8.607027
vt 3.417137 -3.985661
vt 3.417137 3.979188
vt -1.534581 -3.985661
vt -3.420878 -3.985661
vt -3.425863 3.979188

vn 0 1 1.72202E-08
vn 0.0001658897 0.9371632 0.3488911
vn 0 0.9371071 0.3490419
vn 0.0003539786 0.9999957 -0.002927379
vn 0.4584246 0.8887295 -0.002601683
vn -0.0005145853 0.9999956 -0.002927405
vn -0.0004644053 0.9512658 -0.3083712
vn -0.0009288106 0.9513721 -0.3080424
vn 0 0.9511594 -0.3087001
vn -0.0001658897 -0.9371632 -0.3488911
vn 0 -0.9371071 -0.3490418
vn -0.0003539786 -0.9999957 0.002927379
vn -0.4584246 -0.8887295 0.002601683
vn 0.0005145853 -0.9999956 0.002927405
vn 0.0004644053 -0.9512658 0.3083712
vn 0.0009288106 -0.9513721 0.3080424
vn 0 -0.9511594 0.3087001
vn 0 -1 0

usemtl Default-Diffuse
f 4/4/1 3/3/1 2/2/1
f 4/4/1 5/5/1 3/3/1
f 2/2/1 3/3/1 1/1/1
f 17/29/1 20/28/1 19/27/1
f 17/29/1 18/30/1 20/28/1
f 20/28/1 18/30/1 21/31/1
f 36/48/18 33/47/18 35/45/18
f 35/45/18 33/47/18 32/46/18
f 34/44/18 35/45/18 32/46/18
f 7/7/1 6/6/1 5/5/1
f 5/5/1 8/8/1 7/7/1
f 9/9/2 2/11/3 1/10/2
f 1/10/2 10/12/2 9/9/2
f 11/13/4 9/15/4 10/14/4
f 10/14/4 12/16/4 11/13/4
f 13/17/5 9/19/5 11/18/5
f 11/18/5 14/20/5 13/17/5
f 16/24/4 13/22/4 14/21/6
f 14/21/6 15/23/4 16/24/4
f 17/25/7 13/22/8 16/24/7
f 16/24/7 18/26/9 17/25/7
f 22/32/10 25/35/10 23/33/10
f 23/33/10 24/34/11 22/32/10
f 26/36/12 27/39/12 25/37/12
f 25/37/12 22/38/12 26/36/12
f 28/40/13 29/43/13 26/41/13
f 26/41/13 22/42/13 28/40/13
f 29/21/14 28/22/12 31/24/12
f 31/24/12 30/23/12 29/21/14
f 32/25/15 33/26/17 31/24/15
f 31/24/15 28/22/16 32/25/15

